<svg viewBox="-960 -469.5 1920 939" width="1920" height="939" style="background-color: rgb(255, 255, 255);" xmlns="http://www.w3.org/2000/svg"><path d="M-310.4967665386041,53.05792739581149L-331.89696351645216,53.05674880744522M-331.8969635164521,-53.705350161199085L-331.89696351645216,53.05674880744522M-331.89696351645216,53.05674880744522L-332.9169587817345,53.672145587502335M-310.4967665386041,-53.70417157283281L-310.4967665386041,53.05792739581149M-310.4967665386041,53.05792739581149L-311.5167618038865,53.67332417586861" style="fill:none;stroke:rgb(0,0,0);stroke-width:1;stroke-linecap:round"></path><path d="M-310.4967665386041,53.05792739581148L-331.89696351645216,53.05674880744522L-331.89696351645216,-53.705350161199085zM-310.4967665386041,-53.70417157283282L-310.4967665386041,53.05792739581148L-331.89696351645216,-53.705350161199085z" style="fill:rgb(238,238,238); fill-opacity: 0.16"></path><path d="M-310.4967665386041,-53.70417157283281L-331.8969635164521,-53.705350161199085M-331.8969635164521,-53.705350161199085L-332.9169587817345,-53.08995338114197M-310.4967665386041,-53.70417157283281L-311.5167618038864,-53.088774792775695M-210.1375009952551,39.31058551341536L-291.1496220735937,39.306123874883326M-291.1496220735937,-39.790754934677L-291.1496220735937,39.306123874883326M-291.1496220735937,39.306123874883326L-291.90530637227033,39.76205313257117" style="fill:none;stroke:rgb(0,0,0);stroke-width:1;stroke-linecap:round"></path><path d="M-210.13750099525507,39.31058551341537L-291.14962207359366,39.306123874883326L-291.14962207359366,-39.790754934677z" style="fill:rgb(238,238,238); fill-opacity: 0.16"></path><path d="M-210.1375009952551,-39.786293296144954L-291.1496220735937,-39.790754934677M-291.1496220735937,-39.790754934677L-291.9053063722703,-39.33482567698915M-210.1375009952551,-39.786293296144954L-210.1375009952551,39.31058551341536M-210.1375009952551,39.31058551341536L-210.89318529393168,39.76651477110321" style="fill:none;stroke:rgb(0,0,0);stroke-width:1;stroke-linecap:round"></path><path d="M-210.13750099525507,-39.78629329614495L-210.13750099525507,39.31058551341537L-291.14962207359366,-39.790754934677z" style="fill:rgb(238,238,238); fill-opacity: 0.16"></path><path d="M-210.1375009952551,-39.786293296144954L-210.89318529393168,-39.330364038457105M-109.71384385151485,32.264010178290995L-190.7259649298535,32.25954853975895M-190.7259649298535,-32.6513400165735L-190.7259649298535,32.25954853975895M-190.7259649298535,32.25954853975895L-191.34611758357914,32.63370708660379M-109.71384385151485,-32.64687837804146L-190.7259649298535,-32.6513400165735M-190.7259649298535,-32.6513400165735L-191.34611758357914,-32.27718146972865" style="fill:none;stroke:rgb(0,0,0);stroke-width:1;stroke-linecap:round"></path><path d="M-109.71384385151487,32.264010178290995L-190.7259649298535,32.25954853975895L-190.7259649298535,-32.6513400165735z" style="fill:rgb(238,238,238); fill-opacity: 0.16"></path><path d="M-210.2180970000606,28.062158430684608L-291.2302180783992,28.057696792152562M-291.2302180783992,22.213737655318695L-291.2302180783992,28.057696792152562M-291.2302180783992,28.057696792152562L-291.2860507260116,28.09138246965736M-210.2180970000606,22.218199293850738L-291.2302180783992,22.213737655318695M-291.2302180783992,22.213737655318695L-291.2860507260116,22.24742333282349" style="fill:none;stroke:rgb(0,0,0);stroke-width:1;stroke-linecap:round"></path><path d="M-210.21809700006057,28.062158430684605L-291.23021807839916,28.057696792152562L-291.23021807839916,22.213737655318692z" style="fill:rgb(153,255,197); fill-opacity: 0.4"></path><path d="M-109.71384385151487,-32.64687837804146L-109.71384385151487,32.264010178290995L-190.7259649298535,-32.6513400165735z" style="fill:rgb(238,238,238); fill-opacity: 0.16"></path><path d="M-109.71384385151485,-32.64687837804146L-109.71384385151485,32.264010178290995M-109.71384385151485,32.264010178290995L-110.33399650524052,32.638168725135834" style="fill:none;stroke:rgb(0,0,0);stroke-width:1;stroke-linecap:round"></path><path d="M-210.21809700006057,22.218199293850734L-210.21809700006057,28.062158430684605L-291.23021807839916,22.213737655318692z" style="fill:rgb(153,255,197); fill-opacity: 0.4"></path><path d="M-109.71384385151485,-32.64687837804146L-110.33399650524052,-32.27271983119661M-210.21808799379164,22.218200071780558L-210.21808799379164,28.062159208614425M-210.21808799379164,28.062159208614425L-210.27392064140403,28.095844886119224M-210.21808799379164,28.062159208614425L-190.815010095255,20.644421649531566M-210.2180970000606,22.218199293850738L-210.2180970000606,28.062158430684608M-210.2180970000606,28.062158430684608L-210.273929647673,28.0958441081894M-210.21808799379164,22.218200071780558L-210.27392064140403,22.251885749285357M-210.21808799379164,22.218200071780558L-190.815010095255,20.644421649531566M-210.2180970000606,22.218199293850738L-210.273929647673,22.251884971355533" style="fill:none;stroke:rgb(0,0,0);stroke-width:1;stroke-linecap:round"></path><path d="M-291.23021807839916,22.213737655318692L-291.23021807839916,28.057696792152562L-291.2860507260115,22.24742333282349zM-291.2860507260115,28.09138246965736L-291.23021807839916,28.057696792152562L-210.21809700006057,28.062158430684605zM-210.27392964767293,22.25188497135553L-210.21809700006057,22.218199293850734L-291.23021807839916,22.213737655318692zM-210.27392964767293,28.0958441081894L-210.21809700006057,28.062158430684605L-210.21809700006057,22.218199293850734z" style="fill:rgb(153,255,197); fill-opacity: 0.4"></path><path d="M-210.2180952536739,22.218199293946913L-210.2180952536739,28.062158430780784L-210.27392790128627,28.095844108285583zM-210.2180952536739,28.062158430780784L-210.2180952536739,22.218199293946913L-190.81501735614304,20.644421125514675z" style="fill:rgb(255,187,187); fill-opacity: 0.4"></path><path d="M-291.23021807839916,28.057696792152562L-291.2860507260115,28.09138246965736L-291.2860507260115,22.24742333282349zM-291.2860507260115,22.24742333282349L-210.27392964767293,22.25188497135553L-291.23021807839916,22.213737655318692zM-210.27392964767293,28.0958441081894L-291.2860507260115,28.09138246965736L-210.21809700006057,28.062158430684605zM-210.27392964767293,22.25188497135553L-210.27392964767293,28.0958441081894L-210.21809700006057,22.218199293850734z" style="fill:rgb(153,255,197); fill-opacity: 0.4"></path><path d="M-210.2180952536739,22.218199293946913L-210.27392790128627,28.095844108285583L-210.27392790128627,22.251884971451712zM-210.27392790128627,28.095844108285583L-210.2180952536739,28.062158430780784L-190.81501735614304,20.644421125514675zM-210.2180952536739,22.218199293946913L-210.27392790128627,22.251884971451712L-190.81501735614304,20.644421125514675z" style="fill:rgb(255,187,187); fill-opacity: 0.4"></path><path d="M-291.2860507260116,22.24742333282349L-291.2860507260116,28.09138246965736M-291.2860507260116,28.09138246965736L-210.273929647673,28.0958441081894M-291.2860507260116,22.24742333282349L-210.273929647673,22.251884971355533" style="fill:none;stroke:rgb(0,0,0);stroke-width:1;stroke-linecap:round"></path><path d="M-291.2860507260115,22.24742333282349L-291.2860507260115,28.09138246965736L-210.27392964767293,22.25188497135553zM-291.2860507260115,28.09138246965736L-210.27392964767293,28.0958441081894L-210.27392964767293,22.25188497135553z" style="fill:rgb(153,255,197); fill-opacity: 0.4"></path><path d="M-210.27392064140403,28.095844886119224L-210.27392064140403,22.251885749285357M-210.27392064140403,28.095844886119224L-190.815010095255,20.644421649531566M-210.273929647673,22.251884971355533L-210.273929647673,28.0958441081894M-210.27392064140403,22.251885749285357L-190.815010095255,20.644421649531566M17.72354222309473,26.226853399036088L-90.29262416853187,26.2209045473872M-90.29262416853187,-26.531543619461793L-90.29262416853187,26.2209045473872M-90.29262416853187,26.2209045473872L-90.79661620205343,26.5249795614195M17.72354222309473,-26.525594767812905L-90.29262416853187,-26.531543619461793M-90.29262416853187,-26.531543619461793L-90.79661620205343,-26.227468605429493" style="fill:none;stroke:rgb(0,0,0);stroke-width:1;stroke-linecap:round"></path><path d="M17.72354222309473,26.226853399036088L-90.29262416853187,26.2209045473872L-90.29262416853187,-26.531543619461793z" style="fill:rgb(238,238,238); fill-opacity: 0.16"></path><path d="M-210.27392790128627,22.251884971451712L-210.27392790128627,28.095844108285583L-190.81501735614304,20.644421125514675z" style="fill:rgb(255,187,187); fill-opacity: 0.4"></path><path d="M17.72354222309473,-26.525594767812905L17.72354222309473,26.226853399036088L-90.29262416853187,-26.531543619461793z" style="fill:rgb(238,238,238); fill-opacity: 0.16"></path><path d="M17.72354222309473,-26.525594767812905L17.72354222309473,26.226853399036088M17.72354222309473,26.226853399036088L17.219550189573166,26.530928413068388M17.72354222309473,-26.525594767812905L17.219550189573166,-26.221519753780605" style="fill:none;stroke:rgb(0,0,0);stroke-width:1;stroke-linecap:round"></path><path d="M-332.9169587817345,53.672145587502335L-331.89696351645216,53.05674880744522L-310.4967665386041,53.05792739581148zM-311.5167618038864,53.6733241758686L-310.4967665386041,53.05792739581148L-310.4967665386041,-53.70417157283282zM-331.89696351645216,-53.705350161199085L-331.89696351645216,53.05674880744522L-332.9169587817345,-53.08995338114197zM-311.5167618038864,-53.0887747927757L-310.4967665386041,-53.70417157283282L-331.89696351645216,-53.705350161199085z" style="fill:rgb(238,238,238); fill-opacity: 0.16"></path><path d="M145.14808621517625,18.85347121740511L37.13191982354965,18.847522365756223M37.13191982354965,-19.058540789678563L37.13191982354965,18.847522365756223M37.13191982354965,18.847522365756223L36.76976878570437,19.06602002958866M145.14808621517625,-19.052591938029675L37.13191982354965,-19.058540789678563M37.13191982354965,-19.058540789678563L36.76976878570437,-18.840043125846126" style="fill:none;stroke:rgb(0,0,0);stroke-width:1;stroke-linecap:round"></path><path d="M145.14808621517625,18.85347121740511L37.13191982354965,18.847522365756227L37.13191982354965,-19.05854078967856zM145.14808621517625,-19.052591938029675L145.14808621517625,18.85347121740511L37.13191982354965,-19.05854078967856z" style="fill:rgb(238,238,238); fill-opacity: 0.16"></path><path d="M145.14808621517625,-19.052591938029675L145.14808621517625,18.85347121740511M145.14808621517625,18.85347121740511L144.78593517733097,19.07196888123755M285.05006233484323,18.861176139076782L164.62738319070615,18.854544014670587M164.62738319070615,-19.051519140764203L164.62738319070615,18.854544014670587M164.62738319070615,18.854544014670587L164.26523215286088,19.07304167850302M145.14808621517625,-19.052591938029675L144.78593517733097,-18.834094274197238M285.05006233484323,-19.044887016358004L164.62738319070615,-19.051519140764203M164.62738319070615,-19.051519140764203L164.26523215286088,-18.833021476931766" style="fill:none;stroke:rgb(0,0,0);stroke-width:1;stroke-linecap:round"></path><path d="M285.05006233484323,18.861176139076782L164.62738319070615,18.854544014670587L164.62738319070615,-19.051519140764203zM285.05006233484323,-19.044887016358004L285.05006233484323,18.861176139076782L164.62738319070615,-19.051519140764203z" style="fill:rgb(238,238,238); fill-opacity: 0.16"></path><path d="M285.05006233484323,-19.044887016358004L285.05006233484323,18.861176139076782M285.05006233484323,18.861176139076782L284.6879112969979,19.07967380290922M412.5455257019997,18.868197787991146L304.5293593103731,18.862248936342258M304.5293593103731,-19.043814219092532L304.5293593103731,18.862248936342258M304.5293593103731,18.862248936342258L304.1672082725278,19.08074660017469M285.05006233484323,-19.044887016358004L284.6879112969979,-18.826389352525567" style="fill:none;stroke:rgb(0,0,0);stroke-width:1;stroke-linecap:round"></path><path d="M-291.9053063722703,39.76205313257117L-291.14962207359366,39.306123874883326L-210.13750099525507,39.31058551341537z" style="fill:rgb(238,238,238); fill-opacity: 0.16"></path><path d="M412.5455257019997,-19.037865367443644L304.5293593103731,-19.043814219092532M304.5293593103731,-19.043814219092532L304.1672082725278,-18.825316555260095" style="fill:none;stroke:rgb(0,0,0);stroke-width:1;stroke-linecap:round"></path><path d="M-291.14962207359366,-39.790754934677L-291.14962207359366,39.306123874883326L-291.9053063722703,-39.33482567698915zM412.5455257019996,18.868197787991146L304.5293593103731,18.86224893634226L304.5293593103731,-19.04381421909253zM412.5455257019996,-19.037865367443644L412.5455257019996,18.868197787991146L304.5293593103731,-19.04381421909253zM-210.89318529393162,39.76651477110322L-210.13750099525507,39.31058551341537L-210.13750099525507,-39.78629329614495zM-210.89318529393162,-39.3303640384571L-210.13750099525507,-39.78629329614495L-291.14962207359366,-39.790754934677z" style="fill:rgb(238,238,238); fill-opacity: 0.16"></path><path d="M412.5455257019997,-19.037865367443644L412.5455257019997,18.868197787991146M412.5455257019997,18.868197787991146L412.18337466415437,19.08669545182358M412.5455257019997,-19.037865367443644L412.18337466415437,-18.819367703611206M-109.90701013026101,1.1767608101132476L-190.91913120859965,1.1722991715812037M-190.91913120859965,-4.671659965252664L-190.91913120859965,1.1722991715812037M-190.91913120859965,1.1722991715812037L-190.974963856212,1.2059848490859997M-109.90701013026101,-4.66719832672062L-190.91913120859965,-4.671659965252664M-190.91913120859965,-4.671659965252664L-190.974963856212,-4.637974287747868" style="fill:none;stroke:rgb(0,0,0);stroke-width:1;stroke-linecap:round"></path><path d="M-109.90701013026104,1.1767608101132474L-190.91913120859965,1.1722991715812032L-190.91913120859965,-4.671659965252664zM-109.90701013026104,-4.667198326720619L-109.90701013026104,1.1767608101132474L-190.91913120859965,-4.671659965252664z" style="fill:rgb(153,255,197); fill-opacity: 0.4"></path><path d="M-109.90701204945663,-4.667198422844642L-109.90701204945663,1.1767608300982615M-109.90701204945663,1.1767608300982615L-109.96284470150619,1.2104465102801547M-109.90701204945663,1.1767608300982615L-90.4722956571317,-1.4043772207017642M-109.90701013026101,-4.66719832672062L-109.90701013026101,1.1767608101132476M-109.90701013026101,1.1767608101132476L-109.96284277787339,1.2104464876180436M-109.90701204945663,-4.667198422844642L-109.96284470150619,-4.633512742662748M-109.90701204945663,-4.667198422844642L-90.4722956571317,-1.4043772207017642M-109.90701013026101,-4.66719832672062L-109.96284277787339,-4.633512649215824" style="fill:none;stroke:rgb(0,0,0);stroke-width:1;stroke-linecap:round"></path><path d="M-190.7259649298535,-32.6513400165735L-190.7259649298535,32.25954853975895L-191.34611758357914,-32.27718146972865zM-191.34611758357914,32.63370708660379L-190.7259649298535,32.25954853975895L-109.71384385151487,32.264010178290995z" style="fill:rgb(238,238,238); fill-opacity: 0.16"></path><path d="M-190.91913120859965,-4.671659965252664L-190.91913120859965,1.1722991715812032L-190.974963856212,-4.637974287747866z" style="fill:rgb(153,255,197); fill-opacity: 0.4"></path><path d="M-110.33399650524055,-32.27271983119661L-109.71384385151487,-32.64687837804146L-190.7259649298535,-32.6513400165735zM-110.33399650524055,32.638168725135834L-109.71384385151487,32.264010178290995L-109.71384385151487,-32.64687837804146z" style="fill:rgb(238,238,238); fill-opacity: 0.16"></path><path d="M-190.974963856212,1.2059848490859997L-190.91913120859965,1.1722991715812032L-109.90701013026104,1.1767608101132474z" style="fill:rgb(153,255,197); fill-opacity: 0.4"></path><path d="M-109.90700838387436,1.1767608102094274L-109.90700838387436,-4.6671983266244395L-90.47229570256752,-1.4043772059786597z" style="fill:rgb(255,187,187); fill-opacity: 0.4"></path><path d="M-109.9628427778734,-4.633512649215822L-109.90701013026104,-4.667198326720619L-190.91913120859965,-4.671659965252664zM-109.9628427778734,1.2104464876180439L-109.90701013026104,1.1767608101132474L-109.90701013026104,-4.667198326720619z" style="fill:rgb(153,255,197); fill-opacity: 0.4"></path><path d="M-109.90700838387436,-4.6671983266244395L-109.90700838387436,1.1767608102094274L-109.96284103148675,1.2104464877142238z" style="fill:rgb(255,187,187); fill-opacity: 0.4"></path><path d="M-190.91913120859965,1.1722991715812032L-190.974963856212,1.2059848490859997L-190.974963856212,-4.637974287747866zM-190.974963856212,-4.637974287747866L-109.9628427778734,-4.633512649215822L-190.91913120859965,-4.671659965252664z" style="fill:rgb(153,255,197); fill-opacity: 0.4"></path><path d="M-109.96284103148675,1.2104464877142238L-109.90700838387436,1.1767608102094274L-90.47229570256752,-1.4043772059786597zM-109.90700838387436,-4.6671983266244395L-109.96284103148675,-4.633512649119643L-90.47229570256752,-1.4043772059786597z" style="fill:rgb(255,187,187); fill-opacity: 0.4"></path><path d="M-109.9628427778734,1.2104464876180439L-190.974963856212,1.2059848490859997L-109.90701013026104,1.1767608101132474z" style="fill:rgb(153,255,197); fill-opacity: 0.4"></path><path d="M-90.29262416853187,-26.531543619461793L-90.29262416853187,26.2209045473872L-90.79661620205343,-26.227468605429493zM-90.79661620205343,26.5249795614195L-90.29262416853187,26.2209045473872L17.72354222309473,26.226853399036088z" style="fill:rgb(238,238,238); fill-opacity: 0.16"></path><path d="M-109.9628427778734,-4.633512649215822L-109.9628427778734,1.2104464876180439L-109.90701013026104,-4.667198326720619z" style="fill:rgb(153,255,197); fill-opacity: 0.4"></path><path d="M-109.90700838387436,-4.6671983266244395L-109.96284103148675,1.2104464877142238L-109.96284103148675,-4.633512649119643z" style="fill:rgb(255,187,187); fill-opacity: 0.4"></path><path d="M412.4805254508191,17.65230701897533L304.4643590591925,17.646358167326444M304.4643590591925,11.802399030492573L304.4643590591925,17.646358167326444M304.4643590591925,17.646358167326444L304.40852641158006,17.680043844831236M412.4805254508191,11.808347882141458L304.4643590591925,11.802399030492573M304.4643590591925,11.802399030492573L304.40852641158006,11.83608470799737M145.05904852198037,-7.569967176130473L37.042882130353775,-7.575916027779358M37.042882130353775,-13.419875164613225L37.042882130353775,-7.575916027779358M37.042882130353775,-7.575916027779358L36.9870494827414,-7.542230350274562M145.05904852198037,-13.41392631296434L37.042882130353775,-13.419875164613225M37.042882130353775,-13.419875164613225L36.9870494827414,-13.386189487108428" style="fill:none;stroke:rgb(0,0,0);stroke-width:1;stroke-linecap:round"></path><path d="M412.480525450819,17.65230701897533L304.4643590591925,17.646358167326444L304.4643590591925,11.802399030492571zM145.05904852198034,-7.569967176130473L37.04288213035376,-7.575916027779358L37.04288213035376,-13.419875164613225z" style="fill:rgb(153,255,197); fill-opacity: 0.4"></path><path d="M17.219550189573166,-26.221519753780605L17.72354222309473,-26.525594767812905L-90.29262416853187,-26.531543619461793zM17.219550189573166,26.530928413068388L17.72354222309473,26.226853399036088L17.72354222309473,-26.525594767812905z" style="fill:rgb(238,238,238); fill-opacity: 0.16"></path><path d="M412.480525450819,11.808347882141458L412.480525450819,17.65230701897533L304.4643590591925,11.802399030492571zM145.05904852198034,-13.41392631296434L145.05904852198034,-7.569967176130473L37.04288213035376,-13.419875164613225z" style="fill:rgb(153,255,197); fill-opacity: 0.4"></path><path d="M-109.96284470150619,1.2104465102801547L-90.4722956571317,-1.4043772207017642M-109.96284470150619,-4.633512742662748L-90.4722956571317,-1.4043772207017642M412.4805254508191,11.808347882141458L412.4805254508191,17.65230701897533M412.4805254508191,17.65230701897533L412.42469280320665,17.685992696480124M412.4805399270461,11.80834741976425L412.4805399270461,17.652307485470406M412.4805399270461,17.652307485470406L412.42470727943373,17.6859931629752M412.4805399270461,17.652307485470406L431.89353539360474,8.33758812428658M412.4805254508191,11.808347882141458L412.42469280320665,11.842033559646255M412.4805399270461,11.80834741976425L412.42470727943373,11.842033097269047M412.4805399270461,11.80834741976425L431.89353539360474,8.33758812428658M-190.974963856212,-4.637974287747868L-190.974963856212,1.2059848490859997M-190.974963856212,1.2059848490859997L-109.96284277787339,1.2104464876180436M145.05905273179323,-13.41392667708973L145.05905273179323,-7.5699670758197195M145.05905273179323,-7.5699670758197195L145.00322008196227,-7.536281396976375M145.05905273179323,-7.5699670758197195L164.51043479865356,-10.474031469899646M145.05904852198037,-13.41392631296434L145.05904852198037,-7.569967176130473M145.05904852198037,-7.569967176130473L145.00321587436798,-7.536281498625677M-190.974963856212,-4.637974287747868L-109.96284277787339,-4.633512649215824M145.05905273179323,-13.41392667708973L145.00322008196227,-13.380240998246386M145.05905273179323,-13.41392667708973L164.51043479865356,-10.474031469899646M145.05904852198037,-13.41392631296434L145.00321587436798,-13.380240635459543" style="fill:none;stroke:rgb(0,0,0);stroke-width:1;stroke-linecap:round"></path><path d="M-190.974963856212,-4.637974287747866L-190.974963856212,1.2059848490859997L-109.9628427778734,-4.633512649215822z" style="fill:rgb(153,255,197); fill-opacity: 0.4"></path><path d="M-109.96284103148675,-4.633512649119643L-109.96284103148675,1.2104464877142238L-90.47229570256752,-1.4043772059786597z" style="fill:rgb(255,187,187); fill-opacity: 0.4"></path><path d="M-190.974963856212,1.2059848490859997L-109.9628427778734,1.2104464876180439L-109.9628427778734,-4.633512649215822z" style="fill:rgb(153,255,197); fill-opacity: 0.4"></path><path d="M-109.96284277787339,-4.633512649215824L-109.96284277787339,1.2104464876180436M-109.96284470150619,1.2104465102801547L-109.96284470150619,-4.633512742662748" style="fill:none;stroke:rgb(0,0,0);stroke-width:1;stroke-linecap:round"></path><path d="M304.4643590591925,11.802399030492571L304.4643590591925,17.646358167326444L304.40852641158006,11.83608470799737zM37.04288213035376,-13.419875164613225L37.04288213035376,-7.575916027779358L36.9870494827414,-13.386189487108428z" style="fill:rgb(153,255,197); fill-opacity: 0.4"></path><path d="M145.05904837357505,-7.569967176138645L145.05904837357505,-13.413926312972512L164.51043044487258,-10.474031108459526z" style="fill:rgb(255,187,187); fill-opacity: 0.4"></path><path d="M304.40852641158006,17.68004384483124L304.4643590591925,17.646358167326444L412.480525450819,17.65230701897533zM36.9870494827414,-7.542230350274562L37.04288213035376,-7.575916027779358L145.05904852198034,-7.569967176130473zM412.42469280320665,11.842033559646255L412.480525450819,11.808347882141458L304.4643590591925,11.802399030492571z" style="fill:rgb(153,255,197); fill-opacity: 0.4"></path><path d="M539.9621453961354,10.670166588137093L431.9459790045088,10.664217736488208M431.9459790045088,-10.736600390543668L431.9459790045088,10.664217736488208M431.9459790045088,10.664217736488208L431.74151755823135,10.787576069578224" style="fill:none;stroke:rgb(0,0,0);stroke-width:1;stroke-linecap:round"></path><path d="M145.00321587436798,-13.380240635459543L145.05904852198034,-13.41392631296434L37.04288213035376,-13.419875164613225z" style="fill:rgb(153,255,197); fill-opacity: 0.4"></path><path d="M539.9621453961354,-10.730651538894783L431.9459790045088,-10.736600390543668M431.9459790045088,-10.736600390543668L431.74151755823135,-10.613242057453652" style="fill:none;stroke:rgb(0,0,0);stroke-width:1;stroke-linecap:round"></path><path d="M412.48052530241364,11.808347882133285L412.48052530241364,17.652307018967154L412.4246926548013,17.685992696471953z" style="fill:rgb(255,187,187); fill-opacity: 0.4"></path><path d="M412.42469280320665,17.685992696480124L412.480525450819,17.65230701897533L412.480525450819,11.808347882141458z" style="fill:rgb(153,255,197); fill-opacity: 0.4"></path><path d="M539.9621453961354,10.670166588137093L431.9459790045088,10.664217736488208L431.9459790045088,-10.736600390543668z" style="fill:rgb(238,238,238); fill-opacity: 0.16"></path><path d="M145.05904837357505,-13.413926312972512L145.05904837357505,-7.569967176138645L145.0032157259627,-7.5362814986338496z" style="fill:rgb(255,187,187); fill-opacity: 0.4"></path><path d="M145.00321587436798,-7.536281498625677L145.05904852198034,-7.569967176130473L145.05904852198034,-13.41392631296434z" style="fill:rgb(153,255,197); fill-opacity: 0.4"></path><path d="M37.13191982354965,-19.05854078967856L37.13191982354965,18.847522365756227L36.76976878570436,-18.840043125846126z" style="fill:rgb(238,238,238); fill-opacity: 0.16"></path><path d="M412.48052530241364,17.652307018967154L412.48052530241364,11.808347882133285L431.89352076855005,8.337587884531205z" style="fill:rgb(255,187,187); fill-opacity: 0.4"></path><path d="M539.9621453961354,-10.730651538894783L539.9621453961354,10.670166588137093L431.9459790045088,-10.736600390543668zM36.76976878570436,19.066020029588664L37.13191982354965,18.847522365756227L145.14808621517625,18.85347121740511z" style="fill:rgb(238,238,238); fill-opacity: 0.16"></path><path d="M539.9621453961354,-10.730651538894783L539.9621453961354,10.670166588137093M539.9621453961354,10.670166588137093L539.757683949858,10.793524921227108M539.9621453961354,-10.730651538894783L539.757683949858,-10.607293205804766M17.516541343780467,-16.859620162660846L-90.49962504784612,-16.86556901430973M-90.49962504784612,-22.709528151143598L-90.49962504784612,-16.86556901430973M-90.49962504784612,-16.86556901430973L-90.5554576954585,-16.83188333680494M17.516541343780467,-22.70357929949471L-90.49962504784612,-22.709528151143598M-90.49962504784612,-22.709528151143598L-90.5554576954585,-22.675842473638802" style="fill:none;stroke:rgb(0,0,0);stroke-width:1;stroke-linecap:round"></path><path d="M304.4643590591925,17.646358167326444L304.40852641158006,17.68004384483124L304.40852641158006,11.83608470799737zM37.04288213035376,-7.575916027779358L36.9870494827414,-7.542230350274562L36.9870494827414,-13.386189487108428z" style="fill:rgb(153,255,197); fill-opacity: 0.4"></path><path d="M145.0032157259627,-7.5362814986338496L145.05904837357505,-7.569967176138645L164.51043044487258,-10.474031108459526zM145.05904837357505,-13.413926312972512L145.0032157259627,-13.380240635467716L164.51043044487258,-10.474031108459526z" style="fill:rgb(255,187,187); fill-opacity: 0.4"></path><path d="M144.78593517733094,-18.834094274197238L145.14808621517625,-19.052591938029675L37.13191982354965,-19.05854078967856z" style="fill:rgb(238,238,238); fill-opacity: 0.16"></path><path d="M17.51654134378046,-16.859620162660843L-90.49962504784614,-16.86556901430973L-90.49962504784614,-22.709528151143598z" style="fill:rgb(153,255,197); fill-opacity: 0.4"></path><path d="M145.00322008196227,-7.536281396976375L164.51043479865356,-10.474031469899646M145.00322008196227,-13.380240998246386L164.51043479865356,-10.474031469899646" style="fill:none;stroke:rgb(0,0,0);stroke-width:1;stroke-linecap:round"></path><path d="M304.40852641158006,11.83608470799737L412.42469280320665,11.842033559646255L304.4643590591925,11.802399030492571z" style="fill:rgb(153,255,197); fill-opacity: 0.4"></path><path d="M144.78593517733094,19.07196888123755L145.14808621517625,18.85347121740511L145.14808621517625,-19.052591938029675z" style="fill:rgb(238,238,238); fill-opacity: 0.16"></path><path d="M36.9870494827414,-13.386189487108428L145.00321587436798,-13.380240635459543L37.04288213035376,-13.419875164613225zM17.51654134378046,-22.70357929949471L17.51654134378046,-16.859620162660843L-90.49962504784614,-22.709528151143598zM412.42469280320665,17.685992696480124L304.40852641158006,17.68004384483124L412.480525450819,17.65230701897533z" style="fill:rgb(153,255,197); fill-opacity: 0.4"></path><path d="M164.62738319070615,-19.051519140764203L164.62738319070615,18.854544014670587L164.26523215286088,-18.833021476931766z" style="fill:rgb(238,238,238); fill-opacity: 0.16"></path><path d="M145.00321587436798,-7.536281498625677L36.9870494827414,-7.542230350274562L145.05904852198034,-7.569967176130473z" style="fill:rgb(153,255,197); fill-opacity: 0.4"></path><path d="M164.26523215286088,19.07304167850302L164.62738319070615,18.854544014670587L285.05006233484323,18.861176139076782z" style="fill:rgb(238,238,238); fill-opacity: 0.16"></path><path d="M17.516541343780467,-22.70357929949471L17.516541343780467,-16.859620162660846M17.516541343780467,-16.859620162660846L17.46070869616809,-16.82593448515605M17.51654153836885,-22.703578959151475L17.51654153836885,-16.85961982231761M17.51654153836885,-16.85961982231761L17.460708891865767,-16.825934145482094M17.51654153836885,-16.85961982231761L36.96311331886545,-14.200440015215927M17.516541343780467,-22.70357929949471L17.46070869616809,-22.669893621989917M17.51654153836885,-22.703578959151475L17.460708891865767,-22.669893282315957M17.51654153836885,-22.703578959151475L36.96311331886545,-14.200440015215927" style="fill:none;stroke:rgb(0,0,0);stroke-width:1;stroke-linecap:round"></path><path d="M412.48052530241364,11.808347882133285L412.4246926548013,17.685992696471953L412.4246926548013,11.842033559638082z" style="fill:rgb(255,187,187); fill-opacity: 0.4"></path><path d="M412.42469280320665,11.842033559646255L412.42469280320665,17.685992696480124L412.480525450819,11.808347882141458z" style="fill:rgb(153,255,197); fill-opacity: 0.4"></path><path d="M145.05904837357505,-13.413926312972512L145.0032157259627,-7.5362814986338496L145.0032157259627,-13.380240635467716z" style="fill:rgb(255,187,187); fill-opacity: 0.4"></path><path d="M145.00321587436798,-13.380240635459543L145.00321587436798,-7.536281498625677L145.05904852198034,-13.41392631296434z" style="fill:rgb(153,255,197); fill-opacity: 0.4"></path><path d="M412.4246926548013,17.685992696471953L412.48052530241364,17.652307018967154L431.89352076855005,8.337587884531205zM412.48052530241364,11.808347882133285L412.4246926548013,11.842033559638082L431.89352076855005,8.337587884531205z" style="fill:rgb(255,187,187); fill-opacity: 0.4"></path><path d="M284.687911296998,-18.826389352525567L285.05006233484323,-19.044887016358004L164.62738319070615,-19.051519140764203zM284.687911296998,19.07967380290922L285.05006233484323,18.861176139076782L285.05006233484323,-19.044887016358004z" style="fill:rgb(238,238,238); fill-opacity: 0.16"></path><path d="M-90.49962504784614,-22.709528151143598L-90.49962504784614,-16.86556901430973L-90.5554576954585,-22.675842473638802z" style="fill:rgb(153,255,197); fill-opacity: 0.4"></path><path d="M304.40852641158006,11.83608470799737L304.40852641158006,17.680043844831236M304.40852641158006,17.680043844831236L412.42469280320665,17.685992696480124M304.40852641158006,11.83608470799737L412.42469280320665,11.842033559646255M36.9870494827414,-13.386189487108428L36.9870494827414,-7.542230350274562M36.9870494827414,-7.542230350274562L145.00321587436798,-7.536281498625677" style="fill:none;stroke:rgb(0,0,0);stroke-width:1;stroke-linecap:round"></path><path d="M304.5293593103731,-19.04381421909253L304.5293593103731,18.86224893634226L304.16720827252783,-18.82531655526009z" style="fill:rgb(238,238,238); fill-opacity: 0.16"></path><path d="M36.9870494827414,-13.386189487108428L145.00321587436798,-13.380240635459543" style="fill:none;stroke:rgb(0,0,0);stroke-width:1;stroke-linecap:round"></path><path d="M145.0032157259627,-13.380240635467716L145.0032157259627,-7.5362814986338496L164.51043044487258,-10.474031108459526zM17.516541195375147,-16.859620162669017L17.516541195375147,-22.703579299502884L36.96311669111087,-14.200439612736366z" style="fill:rgb(255,187,187); fill-opacity: 0.4"></path><path d="M-90.5554576954585,-16.831883336804935L-90.49962504784614,-16.86556901430973L17.51654134378046,-16.859620162660843z" style="fill:rgb(153,255,197); fill-opacity: 0.4"></path><path d="M304.16720827252783,19.080746600174695L304.5293593103731,18.86224893634226L412.5455257019996,18.868197787991146z" style="fill:rgb(238,238,238); fill-opacity: 0.16"></path><path d="M304.40852641158006,11.83608470799737L304.40852641158006,17.68004384483124L412.42469280320665,11.842033559646255zM36.9870494827414,-13.386189487108428L36.9870494827414,-7.542230350274562L145.00321587436798,-13.380240635459543zM17.46070869616809,-22.669893621989914L17.51654134378046,-22.70357929949471L-90.49962504784614,-22.709528151143598zM304.40852641158006,17.68004384483124L412.42469280320665,17.685992696480124L412.42469280320665,11.842033559646255zM36.9870494827414,-7.542230350274562L145.00321587436798,-7.536281498625677L145.00321587436798,-13.380240635459543z" style="fill:rgb(153,255,197); fill-opacity: 0.4"></path><path d="M412.18337466415437,-18.819367703611206L412.5455257019996,-19.037865367443644L304.5293593103731,-19.04381421909253z" style="fill:rgb(238,238,238); fill-opacity: 0.16"></path><path d="M17.516541195375147,-22.703579299502884L17.516541195375147,-16.859620162669017L17.460708547762774,-16.82593448516422z" style="fill:rgb(255,187,187); fill-opacity: 0.4"></path><path d="M17.46070869616809,-16.825934485156047L17.51654134378046,-16.859620162660843L17.51654134378046,-22.70357929949471z" style="fill:rgb(153,255,197); fill-opacity: 0.4"></path><path d="M412.42469280320665,11.842033559646255L412.42469280320665,17.685992696480124M412.42470727943373,17.6859931629752L412.42470727943373,11.842033097269047M412.42470727943373,17.6859931629752L431.89353539360474,8.33758812428658M412.42470727943373,11.842033097269047L431.89353539360474,8.33758812428658" style="fill:none;stroke:rgb(0,0,0);stroke-width:1;stroke-linecap:round"></path><path d="M412.18337466415437,19.08669545182358L412.5455257019996,18.868197787991146L412.5455257019996,-19.037865367443644z" style="fill:rgb(238,238,238); fill-opacity: 0.16"></path><path d="M145.00321587436798,-13.380240635459543L145.00321587436798,-7.536281498625677M145.00322008196227,-7.536281396976375L145.00322008196227,-13.380240998246386" style="fill:none;stroke:rgb(0,0,0);stroke-width:1;stroke-linecap:round"></path><path d="M412.4246926548013,11.842033559638082L412.4246926548013,17.685992696471953L431.89352076855005,8.337587884531205z" style="fill:rgb(255,187,187); fill-opacity: 0.4"></path><path d="M579.656744484994,71.45597589296634L566.1547236860406,71.45523228651022M566.1547236860406,-71.46730014456111L566.1547236860406,71.45523228651022M566.1547236860406,71.45523228651022L566.0257228781004,71.53306272801642M579.656744484994,-71.466556538105L579.656744484994,71.45597589296634M579.656744484994,71.45597589296634L579.5277436770538,71.53380633447253" style="fill:none;stroke:rgb(0,0,0);stroke-width:1;stroke-linecap:round"></path><path d="M-90.49962504784614,-16.86556901430973L-90.5554576954585,-16.831883336804935L-90.5554576954585,-22.675842473638802z" style="fill:rgb(153,255,197); fill-opacity: 0.4"></path><path d="M579.656744484994,71.45597589296634L566.1547236860406,71.45523228651022L566.1547236860406,-71.46730014456111z" style="fill:rgb(238,238,238); fill-opacity: 0.16"></path><path d="M612.6380636419495,60.75738416212042L599.1360428429962,60.756640555664305M599.1360428429962,-60.76507560611973L599.1360428429962,60.756640555664305M599.1360428429962,60.756640555664305L599.0070420350561,60.8344709971705" style="fill:none;stroke:rgb(0,0,0);stroke-width:1;stroke-linecap:round"></path><path d="M17.460708547762774,-16.82593448516422L17.516541195375147,-16.859620162669017L36.96311669111087,-14.200439612736366zM17.516541195375147,-22.703579299502884L17.460708547762774,-22.66989362199809L36.96311669111087,-14.200439612736366z" style="fill:rgb(255,187,187); fill-opacity: 0.4"></path><path d="M612.6380636419495,-60.76433199966362L612.6380636419495,60.75738416212042M612.6380636419495,60.75738416212042L612.5090628340093,60.83521460362661" style="fill:none;stroke:rgb(0,0,0);stroke-width:1;stroke-linecap:round"></path><path d="M-90.5554576954585,-22.675842473638802L17.46070869616809,-22.669893621989914L-90.49962504784614,-22.709528151143598z" style="fill:rgb(153,255,197); fill-opacity: 0.4"></path><path d="M579.656744484994,-71.466556538105L579.656744484994,71.45597589296634L566.1547236860406,-71.46730014456111zM612.6380636419495,60.75738416212042L599.1360428429962,60.756640555664305L599.1360428429962,-60.76507560611973z" style="fill:rgb(238,238,238); fill-opacity: 0.16"></path><path d="M645.6193827989053,54.00799328682143L632.117361999952,54.00724968036532M632.117361999952,-54.01205192322531L632.117361999952,54.00724968036532M632.117361999952,54.00724968036532L631.9883611920118,54.08508012187151M579.656744484994,-71.466556538105L566.1547236860406,-71.46730014456111M566.1547236860406,-71.46730014456111L566.0257228781004,-71.38946970305491M645.6193827989053,-54.011308316769195L645.6193827989053,54.00799328682143M645.6193827989053,54.00799328682143L645.4903819909651,54.085823728327625" style="fill:none;stroke:rgb(0,0,0);stroke-width:1;stroke-linecap:round"></path><path d="M17.46070869616809,-16.825934485156047L-90.5554576954585,-16.831883336804935L17.51654134378046,-16.859620162660843z" style="fill:rgb(153,255,197); fill-opacity: 0.4"></path><path d="M17.460708891865767,-16.825934145482094L36.96311331886545,-14.200440015215927M17.460708891865767,-22.669893282315957L36.96311331886545,-14.200440015215927" style="fill:none;stroke:rgb(0,0,0);stroke-width:1;stroke-linecap:round"></path><path d="M612.6380636419495,-60.76433199966362L612.6380636419495,60.75738416212042L599.1360428429962,-60.76507560611973z" style="fill:rgb(238,238,238); fill-opacity: 0.16"></path><path d="M579.656744484994,-71.466556538105L579.5277436770538,-71.3887260965988" style="fill:none;stroke:rgb(0,0,0);stroke-width:1;stroke-linecap:round"></path><path d="M645.6193827989053,54.00799328682143L632.117361999952,54.00724968036532L632.117361999952,-54.01205192322531z" style="fill:rgb(238,238,238); fill-opacity: 0.16"></path><path d="M612.6380636419495,-60.76433199966362L599.1360428429962,-60.76507560611973M599.1360428429962,-60.76507560611973L599.0070420350561,-60.687245164613536M678.600701955861,33.756191568818195L665.0986811569077,33.755447962362084M665.0986811569077,-33.756617397626634L665.0986811569077,33.755447962362084M665.0986811569077,33.755447962362084L664.9696803489676,33.83327840386828M612.6380636419495,-60.76433199966362L612.5090628340093,-60.686501558157424" style="fill:none;stroke:rgb(0,0,0);stroke-width:1;stroke-linecap:round"></path><path d="M17.516541195375147,-22.703579299502884L17.460708547762774,-16.82593448516422L17.460708547762774,-22.66989362199809z" style="fill:rgb(255,187,187); fill-opacity: 0.4"></path><path d="M17.46070869616809,-22.669893621989914L17.46070869616809,-16.825934485156047L17.51654134378046,-22.70357929949471z" style="fill:rgb(153,255,197); fill-opacity: 0.4"></path><path d="M645.6193827989053,-54.011308316769195L645.6193827989053,54.00799328682143L632.117361999952,-54.01205192322531z" style="fill:rgb(238,238,238); fill-opacity: 0.16"></path><path d="M678.600701955861,-33.75587379117052L678.600701955861,33.756191568818195M678.600701955861,33.756191568818195L678.4717011479208,33.83402201032439" style="fill:none;stroke:rgb(0,0,0);stroke-width:1;stroke-linecap:round"></path><path d="M678.600701955861,33.756191568818195L665.0986811569077,33.755447962362084L665.0986811569077,-33.756617397626634z" style="fill:rgb(238,238,238); fill-opacity: 0.16"></path><path d="M645.6193827989053,-54.011308316769195L632.117361999952,-54.01205192322531M632.117361999952,-54.01205192322531L631.9883611920118,-53.934221481719106M645.6193827989053,-54.011308316769195L645.4903819909651,-53.933477875262994" style="fill:none;stroke:rgb(0,0,0);stroke-width:1;stroke-linecap:round"></path><path d="M678.600701955861,-33.75587379117052L678.600701955861,33.756191568818195L665.0986811569077,-33.756617397626634z" style="fill:rgb(238,238,238); fill-opacity: 0.16"></path><path d="M678.600701955861,-33.75587379117052L665.0986811569077,-33.756617397626634M665.0986811569077,-33.756617397626634L664.9696803489676,-33.67878695612043M678.600701955861,-33.75587379117052L678.4717011479208,-33.67804334966432M-90.5554576954585,-22.675842473638802L-90.5554576954585,-16.83188333680494M-90.5554576954585,-16.83188333680494L17.46070869616809,-16.82593448515605M-90.5554576954585,-22.675842473638802L17.46070869616809,-22.669893621989917" style="fill:none;stroke:rgb(0,0,0);stroke-width:1;stroke-linecap:round"></path><path d="M431.9459790045088,-10.736600390543668L431.9459790045088,10.664217736488208L431.74151755823135,-10.613242057453652z" style="fill:rgb(238,238,238); fill-opacity: 0.16"></path><path d="M17.460708547762774,-22.66989362199809L17.460708547762774,-16.82593448516422L36.96311669111087,-14.200439612736366z" style="fill:rgb(255,187,187); fill-opacity: 0.4"></path><path d="M-90.5554576954585,-22.675842473638802L-90.5554576954585,-16.831883336804935L17.46070869616809,-22.669893621989914z" style="fill:rgb(153,255,197); fill-opacity: 0.4"></path><path d="M431.74151755823135,10.787576069578224L431.9459790045088,10.664217736488208L539.9621453961354,10.670166588137093z" style="fill:rgb(238,238,238); fill-opacity: 0.16"></path><path d="M-90.5554576954585,-16.831883336804935L17.46070869616809,-16.825934485156047L17.46070869616809,-22.669893621989914z" style="fill:rgb(153,255,197); fill-opacity: 0.4"></path><path d="M539.757683949858,-10.607293205804766L539.9621453961354,-10.730651538894783L431.9459790045088,-10.736600390543668z" style="fill:rgb(238,238,238); fill-opacity: 0.16"></path><path d="M17.460708891865767,-16.825934145482094L17.460708891865767,-22.669893282315957M17.46070869616809,-22.669893621989917L17.46070869616809,-16.82593448515605" style="fill:none;stroke:rgb(0,0,0);stroke-width:1;stroke-linecap:round"></path><path d="M539.757683949858,10.793524921227108L539.9621453961354,10.670166588137093L539.9621453961354,-10.730651538894783zM566.0257228781004,71.53306272801642L566.1547236860406,71.45523228651022L579.656744484994,71.45597589296634zM579.5277436770538,71.53380633447253L579.656744484994,71.45597589296634L579.656744484994,-71.466556538105zM599.0070420350561,60.8344709971705L599.1360428429962,60.756640555664305L612.6380636419495,60.75738416212042zM566.1547236860406,-71.46730014456111L566.1547236860406,71.45523228651022L566.0257228781004,-71.38946970305491zM612.5090628340093,60.83521460362661L612.6380636419495,60.75738416212042L612.6380636419495,-60.76433199966362zM631.9883611920118,54.08508012187151L632.117361999952,54.00724968036532L645.6193827989053,54.00799328682143zM599.1360428429962,-60.76507560611973L599.1360428429962,60.756640555664305L599.0070420350561,-60.687245164613536zM579.5277436770538,-71.3887260965988L579.656744484994,-71.466556538105L566.1547236860406,-71.46730014456111zM645.4903819909651,54.085823728327625L645.6193827989053,54.00799328682143L645.6193827989053,-54.011308316769195zM632.117361999952,-54.01205192322531L632.117361999952,54.00724968036532L631.9883611920118,-53.934221481719106zM612.5090628340093,-60.686501558157424L612.6380636419495,-60.76433199966362L599.1360428429962,-60.76507560611973zM664.9696803489676,33.83327840386828L665.0986811569077,33.755447962362084L678.600701955861,33.756191568818195zM678.4717011479208,33.83402201032439L678.600701955861,33.756191568818195L678.600701955861,-33.75587379117052zM665.0986811569077,-33.756617397626634L665.0986811569077,33.755447962362084L664.9696803489676,-33.67878695612043zM645.4903819909651,-53.933477875262994L645.6193827989053,-54.011308316769195L632.117361999952,-54.01205192322531zM678.4717011479208,-33.67804334966432L678.600701955861,-33.75587379117052L665.0986811569077,-33.756617397626634z" style="fill:rgb(238,238,238); fill-opacity: 0.16"></path><path d="M548.5588547450278,0.03191577411938828L557.6491939960762,0.03241641287975905" style="fill:none;stroke:rgb(0,0,0);stroke-width:1;stroke-linecap:round"></path><path d="M557.676542001409,-3.923968794009658L557.6218459907434,-3.8909688870578933L564.1422934611107,0.0327740119943096z" style="fill:rgb(0,0,0)"></path><path d="M581.5401739019835,0.0337321779171116L590.6305131530319,0.03423281667748237" style="fill:none;stroke:rgb(0,0,0);stroke-width:1;stroke-linecap:round"></path><path d="M590.6578611583647,-3.9221523902119344L590.6031651476992,-3.88915248326017L597.1236126180664,0.03459041579203292z" style="fill:rgb(0,0,0)"></path><path d="M614.5214930589393,0.03554858171483491L623.6118323099877,0.03604922047520568" style="fill:none;stroke:rgb(0,0,0);stroke-width:1;stroke-linecap:round"></path><path d="M623.6391803153205,-3.920335986414211L623.5844843046549,-3.8873360794624463L630.1049317750222,0.03640681958975623z" style="fill:rgb(0,0,0)"></path><path d="M647.502812215895,0.03736498551255822L656.5931514669434,0.03786562427292899" style="fill:none;stroke:rgb(0,0,0);stroke-width:1;stroke-linecap:round"></path><path d="M656.6204994722762,-3.918519582616487L656.5658034616106,-3.885519675664723L663.0862509319779,0.03822322338747954z" style="fill:rgb(0,0,0)"></path><path d="M37.13191982354965,18.847522365756227L36.76976878570436,19.066020029588664L36.76976878570436,-18.840043125846126z" style="fill:rgb(238,238,238); fill-opacity: 0.16"></path><path d="M557.6049439921945,1.5640161791922522L557.6491939960762,4.902382360241315L564.1422934611107,0.0327740119943096z" style="fill:rgb(0,0,0)"></path><path d="M36.76976878570436,-18.840043125846126L144.78593517733094,-18.834094274197238L37.13191982354965,-19.05854078967856z" style="fill:rgb(238,238,238); fill-opacity: 0.16"></path><path d="M590.5862631491502,1.5658325829899755L590.6305131530319,4.904198764039038L597.1236126180664,0.03459041579203292z" style="fill:rgb(0,0,0)"></path><path d="M144.78593517733094,19.07196888123755L36.76976878570436,19.066020029588664L145.14808621517625,18.85347121740511zM579.5277436770538,71.53380633447253L566.0257228781004,71.53306272801642L579.656744484994,71.45597589296634z" style="fill:rgb(238,238,238); fill-opacity: 0.16"></path><path d="M284.8135623987112,0.9746640695268615L164.39088325457413,0.9680319451206646M164.39088325457413,-4.8759271917132025L164.39088325457413,0.9680319451206646M164.39088325457413,0.9680319451206646L164.33505060696177,1.0017176226254605M284.8135623987112,-4.8692950673070055L164.39088325457413,-4.8759271917132025M164.39088325457413,-4.8759271917132025L164.33505060696177,-4.842241514208406" style="fill:none;stroke:rgb(0,0,0);stroke-width:1;stroke-linecap:round"></path><path d="M623.567582306106,1.5676489867876986L623.6118323099877,4.906015167836762L630.1049317750222,0.03640681958975623z" style="fill:rgb(0,0,0)"></path><path d="M566.1547236860406,71.45523228651022L566.0257228781004,71.53306272801642L566.0257228781004,-71.38946970305491zM431.9459790045088,10.664217736488208L431.74151755823135,10.787576069578224L431.74151755823135,-10.613242057453652zM612.5090628340093,60.83521460362661L599.0070420350561,60.8344709971705L612.6380636419495,60.75738416212042zM144.78593517733094,-18.834094274197238L144.78593517733094,19.07196888123755L145.14808621517625,-19.052591938029675z" style="fill:rgb(238,238,238); fill-opacity: 0.16"></path><path d="M284.81356239871127,0.9746640695268608L164.39088325457413,0.9680319451206636L164.39088325457413,-4.875927191713203z" style="fill:rgb(153,255,197); fill-opacity: 0.4"></path><path d="M656.5489014630617,1.5694653905854221L656.5931514669434,4.907831571634485L663.0862509319779,0.03822322338747954zM557.6218459907434,-3.8909688870578933L557.6049439921945,1.5640161791922522L564.1422934611107,0.0327740119943096z" style="fill:rgb(0,0,0)"></path><path d="M164.62738319070615,18.854544014670587L164.26523215286088,19.07304167850302L164.26523215286088,-18.833021476931766zM599.1360428429962,60.756640555664305L599.0070420350561,60.8344709971705L599.0070420350561,-60.687245164613536zM-90.29262416853187,26.2209045473872L-90.79661620205343,26.5249795614195L-90.79661620205343,-26.227468605429493zM579.5277436770538,-71.3887260965988L579.5277436770538,71.53380633447253L579.656744484994,-71.466556538105zM645.4903819909651,54.085823728327625L631.9883611920118,54.08508012187151L645.6193827989053,54.00799328682143zM431.74151755823135,-10.613242057453652L539.757683949858,-10.607293205804766L431.9459790045088,-10.736600390543668zM566.0257228781004,-71.38946970305491L579.5277436770538,-71.3887260965988L566.1547236860406,-71.46730014456111z" style="fill:rgb(238,238,238); fill-opacity: 0.16"></path><path d="M284.81356239871127,-4.8692950673070055L284.81356239871127,0.9746640695268608L164.39088325457413,-4.875927191713203z" style="fill:rgb(153,255,197); fill-opacity: 0.4"></path><path d="M590.6031651476992,-3.88915248326017L590.5862631491502,1.5658325829899755L597.1236126180664,0.03459041579203292z" style="fill:rgb(0,0,0)"></path><path d="M632.117361999952,54.00724968036532L631.9883611920118,54.08508012187151L631.9883611920118,-53.934221481719106zM612.5090628340093,-60.686501558157424L612.5090628340093,60.83521460362661L612.6380636419495,-60.76433199966362zM539.757683949858,10.793524921227108L431.74151755823135,10.787576069578224L539.9621453961354,10.670166588137093zM599.0070420350561,-60.687245164613536L612.5090628340093,-60.686501558157424L599.1360428429962,-60.76507560611973zM164.26523215286088,-18.833021476931766L284.687911296998,-18.826389352525567L164.62738319070615,-19.051519140764203zM-90.79661620205343,-26.227468605429493L17.219550189573166,-26.221519753780605L-90.29262416853187,-26.531543619461793zM17.219550189573166,26.530928413068388L-90.79661620205343,26.5249795614195L17.72354222309473,26.226853399036088z" style="fill:rgb(238,238,238); fill-opacity: 0.16"></path><path d="M623.5844843046549,-3.8873360794624463L623.567582306106,1.5676489867876986L630.1049317750222,0.03640681958975623z" style="fill:rgb(0,0,0)"></path><path d="M678.4717011479208,33.83402201032439L664.9696803489676,33.83327840386828L678.600701955861,33.756191568818195z" style="fill:rgb(238,238,238); fill-opacity: 0.16"></path><path d="M284.8135623987112,-4.8692950673070055L284.8135623987112,0.9746640695268615M284.8135623987112,0.9746640695268615L284.75772975109885,1.0083497470316574M284.8135605940219,-4.869295065201134L284.8135605940219,0.9746640716327323M284.8135605940219,0.9746640716327323L284.75772794640955,1.0083497491375286M284.8135605940219,0.9746640716327323L304.2649426653194,-1.9293998606881468" style="fill:none;stroke:rgb(0,0,0);stroke-width:1;stroke-linecap:round"></path><path d="M645.4903819909651,-53.933477875262994L645.4903819909651,54.085823728327625L645.6193827989053,-54.011308316769195zM665.0986811569077,33.755447962362084L664.9696803489676,33.83327840386828L664.9696803489676,-33.67878695612043zM284.687911296998,19.07967380290922L164.26523215286088,19.07304167850302L285.05006233484323,18.861176139076782z" style="fill:rgb(238,238,238); fill-opacity: 0.16"></path><path d="M284.8135623987112,-4.8692950673070055L284.75772975109885,-4.83560938980221M284.8135605940219,-4.869295065201134L284.75772794640955,-4.835609387696338M284.8135605940219,-4.869295065201134L304.2649426653194,-1.9293998606881468" style="fill:none;stroke:rgb(0,0,0);stroke-width:1;stroke-linecap:round"></path><path d="M631.9883611920118,-53.934221481719106L645.4903819909651,-53.933477875262994L632.117361999952,-54.01205192322531zM539.757683949858,-10.607293205804766L539.757683949858,10.793524921227108L539.9621453961354,-10.730651538894783z" style="fill:rgb(238,238,238); fill-opacity: 0.16"></path><path d="M656.5658034616106,-3.885519675664723L656.5489014630617,1.5694653905854221L663.0862509319779,0.03822322338747954z" style="fill:rgb(0,0,0)"></path><path d="M678.4717011479208,-33.67804334966432L678.4717011479208,33.83402201032439L678.600701955861,-33.75587379117052zM664.9696803489676,-33.67878695612043L678.4717011479208,-33.67804334966432L665.0986811569077,-33.756617397626634zM-190.7259649298535,32.25954853975895L-191.34611758357914,32.63370708660379L-191.34611758357914,-32.27718146972865zM17.219550189573166,-26.221519753780605L17.219550189573166,26.530928413068388L17.72354222309473,-26.525594767812905zM284.687911296998,-18.826389352525567L284.687911296998,19.07967380290922L285.05006233484323,-19.044887016358004zM304.5293593103731,18.86224893634226L304.16720827252783,19.080746600174695L304.16720827252783,-18.82531655526009zM-110.33399650524055,32.638168725135834L-191.34611758357914,32.63370708660379L-109.71384385151487,32.264010178290995z" style="fill:rgb(238,238,238); fill-opacity: 0.16"></path><path d="M164.39088325457413,-4.875927191713203L164.39088325457413,0.9680319451206636L164.33505060696177,-4.842241514208406z" style="fill:rgb(153,255,197); fill-opacity: 0.4"></path><path d="M-191.34611758357914,-32.27718146972865L-110.33399650524055,-32.27271983119661L-190.7259649298535,-32.6513400165735z" style="fill:rgb(238,238,238); fill-opacity: 0.16"></path><path d="M284.81356112754276,0.9746640694568529L284.81356112754276,-4.8692950673770135L304.26494319884023,-1.929399862864026z" style="fill:rgb(255,187,187); fill-opacity: 0.4"></path><path d="M304.16720827252783,-18.82531655526009L412.18337466415437,-18.819367703611206L304.5293593103731,-19.04381421909253z" style="fill:rgb(238,238,238); fill-opacity: 0.16"></path><path d="M164.33505060696177,1.00171762262546L164.39088325457413,0.9680319451206636L284.81356239871127,0.9746640695268608z" style="fill:rgb(153,255,197); fill-opacity: 0.4"></path><path d="M412.18337466415437,19.08669545182358L304.16720827252783,19.080746600174695L412.5455257019996,18.868197787991146zM-110.33399650524055,-32.27271983119661L-110.33399650524055,32.638168725135834L-109.71384385151487,-32.64687837804146z" style="fill:rgb(238,238,238); fill-opacity: 0.16"></path><path d="M284.75772975109885,-4.835609389802209L284.81356239871127,-4.8692950673070055L164.39088325457413,-4.875927191713203z" style="fill:rgb(153,255,197); fill-opacity: 0.4"></path><path d="M412.18337466415437,-18.819367703611206L412.18337466415437,19.08669545182358L412.5455257019996,-19.037865367443644zM-291.14962207359366,39.306123874883326L-291.9053063722703,39.76205313257117L-291.9053063722703,-39.33482567698915z" style="fill:rgb(238,238,238); fill-opacity: 0.16"></path><path d="M-311.1380844864658,26.429628385240232L-332.5382814643138,26.428449796873966M-332.5382814643138,3.052613249538495L-332.5382814643138,26.428449796873966M-332.5382814643138,26.428449796873966L-332.7616120547633,26.56319250689315" style="fill:none;stroke:rgb(0,0,0);stroke-width:1;stroke-linecap:round"></path><path d="M284.81356112754276,-4.8692950673770135L284.81356112754276,0.9746640694568529L284.75772847993034,1.0083497469616494z" style="fill:rgb(255,187,187); fill-opacity: 0.4"></path><path d="M284.75772975109885,1.0083497470316574L284.81356239871127,0.9746640695268608L284.81356239871127,-4.8692950673070055zM-311.1380844864658,26.429628385240235L-332.53828146431385,26.428449796873963L-332.53828146431385,3.052613249538495z" style="fill:rgb(153,255,197); fill-opacity: 0.4"></path><path d="M-311.1380844864658,3.0537918379047637L-332.5382814643138,3.052613249538495M-332.5382814643138,3.052613249538495L-332.7616120547633,3.1873559595576793M-311.1380844864658,3.0537918379047637L-311.1380844864658,26.429628385240232M-311.1380844864658,26.429628385240232L-311.3614150769153,26.564371095259414M-311.13807393389044,3.0537917398223873L-311.13807393389044,26.429628751594M-311.13807393389044,26.429628751594L-311.3614045065912,26.564371450904794M-311.13807393389044,26.429628751594L-291.7074760582291,10.96868560495598" style="fill:none;stroke:rgb(0,0,0);stroke-width:1;stroke-linecap:round"></path><path d="M-311.1380844864658,3.053791837904764L-311.1380844864658,26.429628385240235L-332.53828146431385,3.052613249538495z" style="fill:rgb(153,255,197); fill-opacity: 0.4"></path><path d="M-210.89318529393162,39.76651477110322L-291.9053063722703,39.76205313257117L-210.13750099525507,39.31058551341537z" style="fill:rgb(238,238,238); fill-opacity: 0.16"></path><path d="M-311.1380844864658,3.0537918379047637L-311.3614150769153,3.1885345479239477M-311.13807393389044,3.0537917398223873L-311.3614045065912,3.188534439133184M-311.13807393389044,3.0537917398223873L-291.7074760582291,10.96868560495598" style="fill:none;stroke:rgb(0,0,0);stroke-width:1;stroke-linecap:round"></path><path d="M-291.9053063722703,-39.33482567698915L-210.89318529393162,-39.3303640384571L-291.14962207359366,-39.790754934677zM-210.89318529393162,-39.3303640384571L-210.89318529393162,39.76651477110322L-210.13750099525507,-39.78629329614495z" style="fill:rgb(238,238,238); fill-opacity: 0.16"></path><path d="M164.39088325457413,0.9680319451206636L164.33505060696177,1.00171762262546L164.33505060696177,-4.842241514208406z" style="fill:rgb(153,255,197); fill-opacity: 0.4"></path><path d="M284.75772847993034,1.0083497469616494L284.81356112754276,0.9746640694568529L304.26494319884023,-1.929399862864026zM284.81356112754276,-4.8692950673770135L284.75772847993034,-4.835609389872217L304.26494319884023,-1.929399862864026z" style="fill:rgb(255,187,187); fill-opacity: 0.4"></path><path d="M284.75772794640955,1.0083497491375286L304.2649426653194,-1.9293998606881468M284.75772794640955,-4.835609387696338L304.2649426653194,-1.9293998606881468" style="fill:none;stroke:rgb(0,0,0);stroke-width:1;stroke-linecap:round"></path><path d="M164.33505060696177,-4.842241514208406L284.75772975109885,-4.835609389802209L164.39088325457413,-4.875927191713203z" style="fill:rgb(153,255,197); fill-opacity: 0.4"></path><path d="M566.0257228781004,-71.38946970305491L566.0257228781004,71.53306272801642M566.0257228781004,71.53306272801642L579.5277436770538,71.53380633447253M579.5277436770538,-71.3887260965988L579.5277436770538,71.53380633447253" style="fill:none;stroke:rgb(0,0,0);stroke-width:1;stroke-linecap:round"></path><path d="M284.75772975109885,1.0083497470316574L164.33505060696177,1.00171762262546L284.81356239871127,0.9746640695268608z" style="fill:rgb(153,255,197); fill-opacity: 0.4"></path><path d="M566.0257228781004,71.53306272801642L579.5277436770538,71.53380633447253L579.5277436770538,-71.3887260965988z" style="fill:rgb(238,238,238); fill-opacity: 0.16"></path><path d="M599.0070420350561,-60.687245164613536L599.0070420350561,60.8344709971705M599.0070420350561,60.8344709971705L612.5090628340093,60.83521460362661M612.5090628340093,-60.686501558157424L612.5090628340093,60.83521460362661" style="fill:none;stroke:rgb(0,0,0);stroke-width:1;stroke-linecap:round"></path><path d="M566.0257228781004,-71.38946970305491L566.0257228781004,71.53306272801642L579.5277436770538,-71.3887260965988z" style="fill:rgb(238,238,238); fill-opacity: 0.16"></path><path d="M284.81356112754276,-4.8692950673770135L284.75772847993034,1.0083497469616494L284.75772847993034,-4.835609389872217z" style="fill:rgb(255,187,187); fill-opacity: 0.4"></path><path d="M284.75772975109885,-4.835609389802209L284.75772975109885,1.0083497470316574L284.81356239871127,-4.8692950673070055z" style="fill:rgb(153,255,197); fill-opacity: 0.4"></path><path d="M599.0070420350561,60.8344709971705L612.5090628340093,60.83521460362661L612.5090628340093,-60.686501558157424z" style="fill:rgb(238,238,238); fill-opacity: 0.16"></path><path d="M-311.1380846796429,26.429628385229595L-311.1380846796429,3.0537918378941256L-291.707486809479,10.968685789322937z" style="fill:rgb(255,187,187); fill-opacity: 0.4"></path><path d="M631.9883611920118,-53.934221481719106L631.9883611920118,54.08508012187151M631.9883611920118,54.08508012187151L645.4903819909651,54.085823728327625M566.0257228781004,-71.38946970305491L579.5277436770538,-71.3887260965988M645.4903819909651,-53.933477875262994L645.4903819909651,54.085823728327625" style="fill:none;stroke:rgb(0,0,0);stroke-width:1;stroke-linecap:round"></path><path d="M599.0070420350561,-60.687245164613536L599.0070420350561,60.8344709971705L612.5090628340093,-60.686501558157424zM631.9883611920118,54.08508012187151L645.4903819909651,54.085823728327625L645.4903819909651,-53.933477875262994z" style="fill:rgb(238,238,238); fill-opacity: 0.16"></path><path d="M599.0070420350561,-60.687245164613536L612.5090628340093,-60.686501558157424M664.9696803489676,-33.67878695612043L664.9696803489676,33.83327840386828M664.9696803489676,33.83327840386828L678.4717011479208,33.83402201032439" style="fill:none;stroke:rgb(0,0,0);stroke-width:1;stroke-linecap:round"></path><path d="M631.9883611920118,-53.934221481719106L631.9883611920118,54.08508012187151L645.4903819909651,-53.933477875262994z" style="fill:rgb(238,238,238); fill-opacity: 0.16"></path><path d="M678.4717011479208,-33.67804334966432L678.4717011479208,33.83402201032439M631.9883611920118,-53.934221481719106L645.4903819909651,-53.933477875262994" style="fill:none;stroke:rgb(0,0,0);stroke-width:1;stroke-linecap:round"></path><path d="M664.9696803489676,33.83327840386828L678.4717011479208,33.83402201032439L678.4717011479208,-33.67804334966432z" style="fill:rgb(238,238,238); fill-opacity: 0.16"></path><path d="M164.33505060696177,-4.842241514208406L164.33505060696177,1.0017176226254605M164.33505060696177,1.0017176226254605L284.75772975109885,1.0083497470316574" style="fill:none;stroke:rgb(0,0,0);stroke-width:1;stroke-linecap:round"></path><path d="M664.9696803489676,-33.67878695612043L664.9696803489676,33.83327840386828L678.4717011479208,-33.67804334966432z" style="fill:rgb(238,238,238); fill-opacity: 0.16"></path><path d="M164.33505060696177,-4.842241514208406L284.75772975109885,-4.83560938980221M664.9696803489676,-33.67878695612043L678.4717011479208,-33.67804334966432" style="fill:none;stroke:rgb(0,0,0);stroke-width:1;stroke-linecap:round"></path><path d="M284.75772847993034,-4.835609389872217L284.75772847993034,1.0083497469616494L304.26494319884023,-1.929399862864026z" style="fill:rgb(255,187,187); fill-opacity: 0.4"></path><path d="M164.33505060696177,-4.842241514208406L164.33505060696177,1.00171762262546L284.75772975109885,-4.835609389802209zM164.33505060696177,1.00171762262546L284.75772975109885,1.0083497470316574L284.75772975109885,-4.835609389802209z" style="fill:rgb(153,255,197); fill-opacity: 0.4"></path><path d="M284.75772975109885,-4.83560938980221L284.75772975109885,1.0083497470316574M284.75772794640955,1.0083497491375286L284.75772794640955,-4.835609387696338" style="fill:none;stroke:rgb(0,0,0);stroke-width:1;stroke-linecap:round"></path><path d="M-311.5167618038864,53.6733241758686L-332.9169587817345,53.672145587502335L-310.4967665386041,53.05792739581148zM-331.89696351645216,53.05674880744522L-332.9169587817345,53.672145587502335L-332.9169587817345,-53.08995338114197z" style="fill:rgb(238,238,238); fill-opacity: 0.16"></path><path d="M431.74151755823135,-10.613242057453652L431.74151755823135,10.787576069578224M431.74151755823135,10.787576069578224L539.757683949858,10.793524921227108M431.74151755823135,-10.613242057453652L539.757683949858,-10.607293205804766" style="fill:none;stroke:rgb(0,0,0);stroke-width:1;stroke-linecap:round"></path><path d="M-311.5167618038864,-53.0887747927757L-311.5167618038864,53.6733241758686L-310.4967665386041,-53.70417157283282zM-332.9169587817345,-53.08995338114197L-311.5167618038864,-53.0887747927757L-331.89696351645216,-53.705350161199085zM431.74151755823135,-10.613242057453652L431.74151755823135,10.787576069578224L539.757683949858,-10.607293205804766zM431.74151755823135,10.787576069578224L539.757683949858,10.793524921227108L539.757683949858,-10.607293205804766z" style="fill:rgb(238,238,238); fill-opacity: 0.16"></path><path d="M539.757683949858,-10.607293205804766L539.757683949858,10.793524921227108M-311.3614045065912,26.564371450904794L-291.7074760582291,10.96868560495598M-311.3614045065912,3.188534439133184L-291.7074760582291,10.96868560495598" style="fill:none;stroke:rgb(0,0,0);stroke-width:1;stroke-linecap:round"></path><path d="M-332.76161205476336,26.563192506893145L-332.53828146431385,26.428449796873963L-311.1380844864658,26.429628385240235zM-332.53828146431385,3.052613249538495L-332.53828146431385,26.428449796873963L-332.76161205476336,3.1873559595576806z" style="fill:rgb(153,255,197); fill-opacity: 0.4"></path><path d="M-311.1380846796429,3.0537918378941256L-311.1380846796429,26.429628385229595L-311.3614152700924,26.564371095248777z" style="fill:rgb(255,187,187); fill-opacity: 0.4"></path><path d="M-311.3614150769153,26.564371095259418L-311.1380844864658,26.429628385240235L-311.1380844864658,3.053791837904764zM-311.3614150769153,3.1885345479239495L-311.1380844864658,3.053791837904764L-332.53828146431385,3.052613249538495z" style="fill:rgb(153,255,197); fill-opacity: 0.4"></path><path d="M36.76976878570437,-18.840043125846126L36.76976878570437,19.06602002958866M36.76976878570437,19.06602002958866L144.78593517733097,19.07196888123755M36.76976878570437,-18.840043125846126L144.78593517733097,-18.834094274197238" style="fill:none;stroke:rgb(0,0,0);stroke-width:1;stroke-linecap:round"></path><path d="M36.76976878570436,-18.840043125846126L36.76976878570436,19.066020029588664L144.78593517733094,-18.834094274197238zM36.76976878570436,19.066020029588664L144.78593517733094,19.07196888123755L144.78593517733094,-18.834094274197238z" style="fill:rgb(238,238,238); fill-opacity: 0.16"></path><path d="M-311.3614152700924,26.564371095248777L-311.1380846796429,26.429628385229595L-291.707486809479,10.968685789322937z" style="fill:rgb(255,187,187); fill-opacity: 0.4"></path><path d="M144.78593517733097,-18.834094274197238L144.78593517733097,19.07196888123755" style="fill:none;stroke:rgb(0,0,0);stroke-width:1;stroke-linecap:round"></path><path d="M-311.1380846796429,3.0537918378941256L-311.3614152700924,3.1885345479133105L-291.707486809479,10.968685789322937z" style="fill:rgb(255,187,187); fill-opacity: 0.4"></path><path d="M164.26523215286088,-18.833021476931766L164.26523215286088,19.07304167850302M164.26523215286088,19.07304167850302L284.6879112969979,19.07967380290922M164.26523215286088,-18.833021476931766L284.6879112969979,-18.826389352525567" style="fill:none;stroke:rgb(0,0,0);stroke-width:1;stroke-linecap:round"></path><path d="M164.26523215286088,-18.833021476931766L164.26523215286088,19.07304167850302L284.687911296998,-18.826389352525567zM164.26523215286088,19.07304167850302L284.687911296998,19.07967380290922L284.687911296998,-18.826389352525567z" style="fill:rgb(238,238,238); fill-opacity: 0.16"></path><path d="M284.6879112969979,-18.826389352525567L284.6879112969979,19.07967380290922M304.1672082725278,-18.825316555260095L304.1672082725278,19.08074660017469M304.1672082725278,19.08074660017469L412.18337466415437,19.08669545182358M304.1672082725278,-18.825316555260095L412.18337466415437,-18.819367703611206" style="fill:none;stroke:rgb(0,0,0);stroke-width:1;stroke-linecap:round"></path><path d="M304.16720827252783,-18.82531655526009L304.16720827252783,19.080746600174695L412.18337466415437,-18.819367703611206zM304.16720827252783,19.080746600174695L412.18337466415437,19.08669545182358L412.18337466415437,-18.819367703611206z" style="fill:rgb(238,238,238); fill-opacity: 0.16"></path><path d="M412.18337466415437,-18.819367703611206L412.18337466415437,19.08669545182358M-90.79661620205343,-26.227468605429493L-90.79661620205343,26.5249795614195M-90.79661620205343,26.5249795614195L17.219550189573166,26.530928413068388M-90.79661620205343,-26.227468605429493L17.219550189573166,-26.221519753780605" style="fill:none;stroke:rgb(0,0,0);stroke-width:1;stroke-linecap:round"></path><path d="M-90.79661620205343,-26.227468605429493L-90.79661620205343,26.5249795614195L17.219550189573166,-26.221519753780605z" style="fill:rgb(238,238,238); fill-opacity: 0.16"></path><path d="M-332.53828146431385,26.428449796873963L-332.76161205476336,26.563192506893145L-332.76161205476336,3.1873559595576806zM-311.3614150769153,26.564371095259418L-332.76161205476336,26.563192506893145L-311.1380844864658,26.429628385240235z" style="fill:rgb(153,255,197); fill-opacity: 0.4"></path><path d="M-90.79661620205343,26.5249795614195L17.219550189573166,26.530928413068388L17.219550189573166,-26.221519753780605z" style="fill:rgb(238,238,238); fill-opacity: 0.16"></path><path d="M-332.76161205476336,3.1873559595576806L-311.3614150769153,3.1885345479239495L-332.53828146431385,3.052613249538495z" style="fill:rgb(153,255,197); fill-opacity: 0.4"></path><path d="M-311.1380846796429,3.0537918378941256L-311.3614152700924,26.564371095248777L-311.3614152700924,3.1885345479133105z" style="fill:rgb(255,187,187); fill-opacity: 0.4"></path><path d="M-311.3614150769153,3.1885345479239495L-311.3614150769153,26.564371095259418L-311.1380844864658,3.053791837904764z" style="fill:rgb(153,255,197); fill-opacity: 0.4"></path><path d="M17.219550189573166,-26.221519753780605L17.219550189573166,26.530928413068388" style="fill:none;stroke:rgb(0,0,0);stroke-width:1;stroke-linecap:round"></path><path d="M-311.3614152700924,3.1885345479133105L-311.3614152700924,26.564371095248777L-291.707486809479,10.968685789322937z" style="fill:rgb(255,187,187); fill-opacity: 0.4"></path><path d="M-191.34611758357914,-32.27718146972865L-191.34611758357914,32.63370708660379M-191.34611758357914,32.63370708660379L-110.33399650524052,32.638168725135834M-191.34611758357914,-32.27718146972865L-110.33399650524052,-32.27271983119661" style="fill:none;stroke:rgb(0,0,0);stroke-width:1;stroke-linecap:round"></path><path d="M-191.34611758357914,-32.27718146972865L-191.34611758357914,32.63370708660379L-110.33399650524055,-32.27271983119661zM-191.34611758357914,32.63370708660379L-110.33399650524055,32.638168725135834L-110.33399650524055,-32.27271983119661z" style="fill:rgb(238,238,238); fill-opacity: 0.16"></path><path d="M-110.33399650524052,-32.27271983119661L-110.33399650524052,32.638168725135834M-332.7616120547633,3.1873559595576793L-332.7616120547633,26.56319250689315M-332.7616120547633,26.56319250689315L-311.3614150769153,26.564371095259414M-332.7616120547633,3.1873559595576793L-311.3614150769153,3.1885345479239477" style="fill:none;stroke:rgb(0,0,0);stroke-width:1;stroke-linecap:round"></path><path d="M-332.76161205476336,3.1873559595576806L-332.76161205476336,26.563192506893145L-311.3614150769153,3.1885345479239495zM-332.76161205476336,26.563192506893145L-311.3614150769153,26.564371095259418L-311.3614150769153,3.1885345479239495z" style="fill:rgb(153,255,197); fill-opacity: 0.4"></path><path d="M-311.3614045065912,26.564371450904794L-311.3614045065912,3.188534439133184M-311.3614150769153,3.1885345479239477L-311.3614150769153,26.564371095259414M-291.9053063722703,-39.33482567698915L-291.90530637227033,39.76205313257117M-291.90530637227033,39.76205313257117L-210.89318529393168,39.76651477110321M-291.9053063722703,-39.33482567698915L-210.89318529393168,-39.330364038457105" style="fill:none;stroke:rgb(0,0,0);stroke-width:1;stroke-linecap:round"></path><path d="M-291.9053063722703,-39.33482567698915L-291.9053063722703,39.76205313257117L-210.89318529393162,-39.3303640384571zM-291.9053063722703,39.76205313257117L-210.89318529393162,39.76651477110322L-210.89318529393162,-39.3303640384571z" style="fill:rgb(238,238,238); fill-opacity: 0.16"></path><path d="M-210.89318529393168,-39.330364038457105L-210.89318529393168,39.76651477110321M-332.9169587817345,-53.08995338114197L-332.9169587817345,53.672145587502335M-332.9169587817345,53.672145587502335L-311.5167618038865,53.67332417586861M-311.5167618038864,-53.088774792775695L-311.5167618038865,53.67332417586861" style="fill:none;stroke:rgb(0,0,0);stroke-width:1;stroke-linecap:round"></path><path d="M-332.9169587817345,53.672145587502335L-311.5167618038864,53.6733241758686L-311.5167618038864,-53.0887747927757zM-332.9169587817345,-53.08995338114197L-332.9169587817345,53.672145587502335L-311.5167618038864,-53.0887747927757z" style="fill:rgb(238,238,238); fill-opacity: 0.16"></path><path d="M-332.9169587817345,-53.08995338114197L-311.5167618038864,-53.088774792775695" style="fill:none;stroke:rgb(0,0,0);stroke-width:1;stroke-linecap:round"></path></svg>